<?xml version="1.0" encoding="UTF-8"?>
<svg id="Layer_2" data-name="Layer 2" xmlns="http://www.w3.org/2000/svg" viewBox="0 0 1666.29 175.31">
  <defs>
    <style>
      .cls-1 {
        isolation: isolate;
      }

      .cls-2 {
        fill: #fff;
        stroke-width: 0px;
      }
    </style>
  </defs>
  <g id="Layer_2-2" data-name="Layer 2">
    <g id="Layer_2-2" data-name="Layer 2-2">
      <g class="cls-1">
        <g class="cls-1">
          <path class="cls-2" d="m73.83,79.22L109.34,2.34h38.44l-56.02,108.75v61.88h-35.74v-61.88L0,2.34h38.55l35.27,76.88Z"/>
        </g>
        <g class="cls-1">
          <path class="cls-2" d="m300.12,91.52c0,16.8-2.97,31.52-8.91,44.18-5.94,12.66-14.43,22.42-25.49,29.3-11.06,6.88-23.73,10.31-38.03,10.31s-26.76-3.4-37.85-10.2c-11.09-6.8-19.69-16.5-25.78-29.12s-9.18-27.13-9.26-43.54v-8.44c0-16.8,3.03-31.58,9.08-44.36,6.05-12.77,14.61-22.58,25.66-29.41,11.05-6.83,23.69-10.25,37.91-10.25s26.85,3.42,37.91,10.25c11.05,6.84,19.61,16.64,25.66,29.41,6.05,12.77,9.08,27.52,9.08,44.24v7.62Zm-35.62-7.73c0-17.89-3.2-31.48-9.61-40.78-6.41-9.3-15.55-13.95-27.42-13.95s-20.9,4.59-27.3,13.77c-6.41,9.18-9.65,22.64-9.73,40.37v8.32c0,17.42,3.2,30.94,9.61,40.55,6.41,9.61,15.62,14.41,27.66,14.41s20.86-4.63,27.19-13.89,9.53-22.75,9.61-40.49v-8.32Z"/>
          <path class="cls-2" d="m460.66,151.41c-6.33,7.58-15.27,13.46-26.84,17.64-11.56,4.18-24.38,6.27-38.44,6.27-14.77,0-27.71-3.22-38.85-9.67s-19.73-15.8-25.78-28.07c-6.06-12.27-9.16-26.68-9.32-43.24v-11.6c0-17.03,2.87-31.78,8.61-44.24,5.74-12.46,14.02-21.99,24.84-28.59,10.82-6.6,23.5-9.9,38.03-9.9,20.23,0,36.05,4.83,47.46,14.47,11.41,9.65,18.16,23.69,20.27,42.13h-34.22c-1.56-9.76-5.02-16.91-10.37-21.45-5.35-4.53-12.71-6.8-22.09-6.8-11.95,0-21.06,4.49-27.3,13.48-6.25,8.99-9.42,22.34-9.49,40.08v10.9c0,17.89,3.4,31.41,10.2,40.55s16.76,13.71,29.88,13.71,22.62-2.81,28.24-8.44v-29.41h-31.99v-25.9h67.15v68.09Z"/>
          <path class="cls-2" d="m591.8,99.02h-67.5v45.7h79.22v28.24h-114.38V2.34h114.14v28.48h-78.98v40.66h67.5v27.54Z"/>
          <path class="cls-2" d="m712.62,128.2c0-6.64-2.34-11.74-7.03-15.29s-13.12-7.3-25.31-11.25c-12.19-3.94-21.84-7.83-28.95-11.66-19.38-10.47-29.06-24.57-29.06-42.3,0-9.22,2.6-17.44,7.79-24.67,5.19-7.23,12.66-12.87,22.38-16.93,9.73-4.06,20.64-6.09,32.75-6.09s23.05,2.21,32.58,6.62c9.53,4.42,16.93,10.65,22.21,18.69,5.27,8.05,7.91,17.19,7.91,27.42h-35.16c0-7.81-2.46-13.89-7.38-18.22s-11.84-6.5-20.74-6.5-15.27,1.82-20.04,5.45c-4.77,3.63-7.15,8.42-7.15,14.36,0,5.55,2.79,10.2,8.38,13.95,5.58,3.75,13.81,7.27,24.67,10.55,20,6.02,34.57,13.48,43.71,22.38s13.71,20,13.71,33.28c0,14.77-5.59,26.35-16.76,34.75-11.17,8.4-26.21,12.6-45.12,12.6-13.12,0-25.08-2.4-35.86-7.21s-19-11.39-24.67-19.75c-5.67-8.36-8.5-18.05-8.5-29.06h35.27c0,18.83,11.25,28.24,33.75,28.24,8.36,0,14.88-1.7,19.57-5.1s7.03-8.14,7.03-14.24Z"/>
          <path class="cls-2" d="m910.55,172.97h-35.16v-73.13h-68.55v73.13h-35.16V2.34h35.16v69.14h68.55V2.34h35.16v170.63Z"/>
          <path class="cls-2" d="m1001.01,172.97V2.34h59.77c20.7,0,36.41,3.97,47.11,11.89,10.7,7.93,16.05,19.55,16.05,34.86,0,8.36-2.15,15.72-6.45,22.09-4.3,6.37-10.27,11.04-17.93,14,8.75,2.19,15.64,6.6,20.68,13.24,5.04,6.64,7.56,14.77,7.56,24.38,0,16.41-5.23,28.83-15.7,37.27-10.47,8.44-25.39,12.73-44.77,12.89h-66.33Zm35.16-99.14h26.02c17.73-.31,26.6-7.38,26.6-21.21,0-7.73-2.25-13.3-6.74-16.7-4.49-3.4-11.58-5.1-21.27-5.1h-24.61v43.01Zm0,24.84v46.06h30.12c8.28,0,14.75-1.97,19.39-5.92,4.65-3.95,6.97-9.39,6.97-16.35,0-15.62-8.09-23.56-24.26-23.79h-32.23Z"/>
          <path class="cls-2" d="m1191.56,172.97h-35.16V2.34h35.16v170.63Z"/>
          <path class="cls-2" d="m1312.62,128.2c0-6.64-2.34-11.74-7.03-15.29s-13.12-7.3-25.31-11.25c-12.19-3.94-21.84-7.83-28.95-11.66-19.38-10.47-29.06-24.57-29.06-42.3,0-9.22,2.6-17.44,7.79-24.67,5.2-7.23,12.66-12.87,22.38-16.93,9.73-4.06,20.64-6.09,32.75-6.09s23.05,2.21,32.58,6.62c9.53,4.42,16.93,10.65,22.21,18.69,5.27,8.05,7.91,17.19,7.91,27.42h-35.16c0-7.81-2.46-13.89-7.38-18.22s-11.84-6.5-20.74-6.5-15.27,1.82-20.04,5.45c-4.77,3.63-7.15,8.42-7.15,14.36,0,5.55,2.79,10.2,8.38,13.95,5.58,3.75,13.81,7.27,24.67,10.55,20,6.02,34.57,13.48,43.71,22.38s13.71,20,13.71,33.28c0,14.77-5.59,26.35-16.76,34.75-11.17,8.4-26.21,12.6-45.12,12.6-13.12,0-25.08-2.4-35.86-7.21s-19-11.39-24.67-19.75c-5.67-8.36-8.5-18.05-8.5-29.06h35.27c0,18.83,11.25,28.24,33.75,28.24,8.36,0,14.88-1.7,19.57-5.1s7.03-8.14,7.03-14.24Z"/>
        </g>
        <g class="cls-1">
          <path class="cls-2" d="m1510.55,172.97h-35.16v-73.13h-68.55v73.13h-35.16V2.34h35.16v69.14h68.55V2.34h35.16v170.63Z"/>
        </g>
        <g class="cls-1">
          <path class="cls-2" d="m1666.29,30.82h-52.27v142.15h-35.16V30.82h-51.56V2.34h138.98v28.48Z"/>
        </g>
      </g>
    </g>
  </g>
</svg>