<?xml version="1.0" encoding="UTF-8"?>
<svg id="Layer_2" data-name="Layer 2" xmlns="http://www.w3.org/2000/svg" viewBox="0 0 146 156.1">
  <defs>
    <style>
      .cls-1 {
        fill: #e2e8f0;
        stroke: #e2e8f0;
        stroke-linejoin: round;
        stroke-width: 6px;
      }
    </style>
  </defs>
  <g id="Layer_1-2" data-name="Layer 1">
    <g>
      <polygon class="cls-1" points="63 3 63 153.1 54.25 148.05 53 147.33 43 141.56 33 135.78 23 130.01 19.61 128.05 13 124.24 3 118.46 3 95.37 13 101.14 23 106.92 24.96 108.05 33 112.69 43 118.46 43 95.37 33 89.6 30.32 88.05 23 83.82 13 78.05 3 72.28 3 37.64 13 31.86 19.61 28.05 23 26.09 23 60.73 33 66.5 35.68 68.05 43 72.28 43 14.54 53 8.77 54.25 8.05 63 3"/>
      <path class="cls-1" d="M133,31.86l-6.61-3.81-3.39-1.96-10-5.77-10-5.78-10-5.77-1.25-.72-8.75-5.05v150.1l8.75-5.05,1.25-.72,10-5.77,10-5.78,10-5.77,3.39-1.96,6.61-3.81,10-5.78v-34.64l-10-5.77,10-5.77v-34.64l-10-5.78ZM123,106.92l-1.96,1.13-8.04,4.64-10,5.77v-23.09l10-5.77,10,5.77v11.55ZM123,60.73l-10,5.77-2.68,1.55-7.32,4.23v-34.64l10,5.77,8.04,4.64,1.96,1.13v11.55Z"/>
    </g>
  </g>
</svg>