<?xml version="1.0" encoding="UTF-8"?>
<svg id="Layer_2" data-name="Layer 2" xmlns="http://www.w3.org/2000/svg" viewBox="0 0 269 269">
  <defs>
    <style>
      .cls-1 {
        fill: #e2e8f0;
        stroke-width: 0px;
      }
    </style>
  </defs>
  <g id="Circular-Mesh_copy_2" data-name="Circular-Mesh copy 2">
    <g>
      <path class="cls-1" d="M268.19,119.7c-.41-3.77-.97-7.48-1.69-11.14-2.19-11.19-5.76-21.87-10.54-31.88-4.45-9.34-9.95-18.08-16.34-26.08l-41.48,41.48-1.43,1.43-19.78,19.78-83.42,83.42-1.43,1.43-20.1,20.1-21.38,21.38c8,6.39,16.74,11.89,26.08,16.34,10.01,4.78,20.69,8.35,31.88,10.54,3.66.72,7.37,1.28,11.14,1.69,4.86.54,9.8.81,14.8.81s9.94-.27,14.8-.81c3.77-.41,7.48-.97,11.14-1.69,11.19-2.19,21.87-5.76,31.88-10.54,9.34-4.45,18.08-9.95,26.08-16.34,7.84-6.26,14.96-13.38,21.22-21.22,6.39-8,11.89-16.74,16.34-26.08,4.78-10.01,8.35-20.69,10.54-31.88.72-3.66,1.28-7.36,1.69-11.13h0c.54-4.87.81-9.81.81-14.81s-.27-9.94-.81-14.8ZM169.39,233.03c-10.44,3.7-21.64,5.79-33.31,5.95-.53.02-1.05.02-1.58.02s-1.05,0-1.58-.02c-11.67-.16-22.87-2.25-33.31-5.95l13.68-13.68,11.04-11.04,31.38-31.38,19.78,19.78,1.43,1.43,20.1,20.1c-8.33,6.23-17.63,11.25-27.63,14.79ZM238.98,136.08c-.16,11.67-2.25,22.87-5.95,33.31-3.54,10-8.56,19.3-14.79,27.63l-41.31-41.31,21.21-21.21,10.17-10.17,11.04-11.04,13.68-13.68c3.7,10.44,5.79,21.64,5.95,33.31.02.53.02,1.05.02,1.58s0,1.05-.02,1.58Z"/>
      <path class="cls-1" d="M218.4,29.38l-21.38,21.38-20.1,20.1-1.43,1.43-19.78,19.78-2.19,2.19-19.02,19.02-21.22,21.22-19.02,19.02-43.5,43.5-1.12,1.12-20.26,20.26c-6.39-8-11.89-16.74-16.34-26.08-4.78-10.01-8.35-20.69-10.54-31.88-.72-3.66-1.28-7.37-1.69-11.14-.54-4.86-.81-9.8-.81-14.8s.27-9.94.81-14.8c.41-3.77.97-7.48,1.69-11.14,2.19-11.19,5.76-21.87,10.54-31.88l22.93,22.93c-3.7,10.44-5.79,21.64-5.95,33.31-.02.53-.02,1.05-.02,1.58s0,1.05.02,1.58c.16,11.67,2.25,22.87,5.95,33.31l56.1-56.1-19.78-19.78-1.43-1.43L29.38,50.6c6.26-7.84,13.38-14.96,21.22-21.22,8-6.39,16.74-11.89,26.08-16.34,10.01-4.78,20.69-8.35,31.88-10.54,3.66-.72,7.37-1.28,11.14-1.69,4.86-.54,9.8-.81,14.8-.81s9.94.27,14.8.81c3.77.41,7.48.97,11.14,1.69l-4.72,4.72-21.22,21.22-1.58,1.58c-11.67.16-22.87,2.25-33.31,5.95-10,3.54-19.3,8.56-27.63,14.79l20.1,20.1,1.43,1.43,19.78,19.78L192.32,13.04c9.34,4.45,18.08,9.95,26.08,16.34Z"/>
    </g>
  </g>
</svg>